<?xml version="1.0" standalone="no"?>
<!DOCTYPE svg PUBLIC "-//W3C//DTD SVG 20010904//EN"
 "http://www.w3.org/TR/2001/REC-SVG-20010904/DTD/svg10.dtd">
<svg version="1.0" xmlns="http://www.w3.org/2000/svg"
 width="512.000000pt" height="512.000000pt" viewBox="0 0 512.000000 512.000000"
 preserveAspectRatio="xMidYMid meet">
<metadata>
Created by potrace 1.15, written by Peter Selinger 2001-2017
</metadata>
<g transform="translate(0.000000,512.000000) scale(0.100000,-0.100000)"
fill="#053b6d" stroke="none">
<path d="M0 2560 l0 -2560 2560 0 2560 0 0 2560 0 2560 -2560 0 -2560 0 0
-2560z m2395 1246 c19 -8 40 -20 47 -25 13 -11 119 -94 198 -157 92 -72 271
-211 341 -264 129 -99 160 -124 233 -192 40 -38 81 -83 92 -102 27 -49 217
-364 244 -406 6 -8 23 -37 39 -65 l30 -49 -77 -26 c-42 -15 -101 -39 -131 -54
-143 -74 -273 -74 -382 -1 -278 188 -620 193 -897 16 -132 -85 -236 -93 -375
-31 -42 19 -77 37 -77 40 0 3 40 30 90 60 49 30 183 115 297 188 114 73 251
158 303 189 52 31 128 79 169 106 l75 50 -30 24 c-16 14 -82 70 -147 126 -65
56 -125 106 -133 110 -15 9 -45 -6 -334 -167 -142 -79 -159 -86 -210 -86 -63
0 -99 16 -138 61 -37 43 -51 102 -39 159 12 57 37 92 85 121 20 12 155 101
300 197 144 96 277 178 295 182 52 13 95 11 132 -4z m1761 -281 c99 -51 172
-130 211 -228 35 -90 39 -219 10 -307 -41 -122 -142 -227 -261 -272 -49 -19
-80 -23 -161 -23 -87 0 -109 4 -169 29 -44 19 -89 48 -127 83 -80 75 -112 133
-136 250 -13 66 -13 81 2 155 34 172 134 287 293 339 45 15 79 18 160 16 95
-3 107 -6 178 -42z m-1406 -1060 c54 -15 190 -80 240 -115 42 -30 138 -53 216
-52 85 1 168 26 270 82 217 118 489 104 684 -35 74 -52 170 -92 238 -100 50
-6 66 -12 82 -32 25 -33 25 -68 0 -93 -17 -17 -33 -20 -97 -20 -98 0 -188 22
-284 71 -137 68 -191 82 -294 74 -102 -7 -132 -19 -262 -97 -127 -77 -221
-102 -373 -101 -138 1 -189 16 -365 103 -113 57 -125 61 -205 65 -108 6 -162
-8 -282 -73 -144 -76 -219 -96 -363 -95 -153 2 -223 22 -370 106 -131 76 -184
92 -290 92 -91 -1 -150 -18 -268 -77 -100 -50 -172 -68 -270 -68 -94 0 -114 9
-123 56 -8 46 24 84 72 84 56 0 156 38 249 95 143 88 227 116 367 122 107 5
124 4 202 -21 47 -14 129 -50 183 -78 95 -50 100 -52 199 -56 118 -5 170 8
274 69 88 52 203 98 270 109 72 12 231 4 300 -15z m-25 -491 c39 -8 104 -32
145 -53 227 -118 214 -114 331 -114 l106 -1 126 62 c182 89 278 110 432 93
102 -11 202 -47 289 -105 91 -60 147 -85 231 -102 85 -16 115 -37 115 -79 0
-13 -8 -33 -18 -45 -43 -53 -221 -30 -388 50 -137 65 -174 74 -289 68 -101 -6
-133 -17 -321 -123 -96 -54 -182 -75 -306 -75 -144 0 -200 18 -433 139 -46 24
-60 26 -175 26 -120 0 -128 -1 -193 -32 -37 -18 -81 -41 -97 -53 -86 -62 -301
-96 -445 -71 -80 14 -186 57 -250 101 -90 62 -151 82 -261 88 -114 5 -137 0
-260 -59 -123 -59 -206 -82 -305 -83 -98 -1 -129 14 -129 64 0 47 28 69 100
81 98 15 136 30 237 97 137 90 290 131 436 117 105 -10 139 -20 272 -85 155
-75 209 -87 317 -72 55 8 102 22 138 41 204 108 235 121 325 135 97 16 161 13
270 -10z"/>
</g>
</svg>
