<svg width="1000.0000000000001" height="1000.0000000000001" xmlns="http://www.w3.org/2000/svg">

 <g>
  <title>background</title>
  <rect fill="none" id="canvas_background" height="1002" width="1002" y="-1" x="-1"/>
 </g>
 <g>
  <title>Layer 1</title>
  <g id="svg_1" text-anchor="none" font-size="none" font-weight="none" font-family="none" stroke-dashoffset="0" stroke-miterlimit="10" stroke-width="none" fill-rule="nonzero" fill="none">
   <path id="svg_2" fill="none" d="m0.7561,997.13499l0,-997.85912l997.85912,0l0,997.85912l-997.85912,0z"/>
   <g opacity="0" fill="#000000" id="original-icon">
    <path stroke="null" id="svg_3" d="m78.71384,92.82516c-25.76258,0 -46.77465,21.01207 -46.77465,46.77465l0,561.29576c0,25.76258 21.01207,46.77465 46.77465,46.77465l322.06292,0l-37.45627,124.73239l-81.91652,0c-8.64842,0 -15.59155,7.00404 -15.59155,15.59155c0,8.58751 6.94313,15.59155 15.59155,15.59155l436.56337,0c8.64842,0 15.59155,-7.00404 15.59155,-15.59155c0,-8.58751 -6.94313,-15.59155 -15.59155,-15.59155l-81.91652,0l-37.45627,-124.73239l322.06292,0c25.76258,0 46.77465,-21.01207 46.77465,-46.77465l0,-561.29576c0,-25.76258 -21.01207,-46.77465 -46.77465,-46.77465l-841.94363,0zm0,31.1831l841.94363,0c8.58751,0 15.59155,7.00404 15.59155,15.59155l0,15.59155l-873.12673,0l0,-15.59155c0,-8.58751 7.00404,-15.59155 15.59155,-15.59155zm-15.59155,62.3662l873.12673,0l0,405.38027l-357.32662,0c-8.64842,0 -15.59155,7.00404 -15.59155,15.59155c0,8.58751 6.94313,15.59155 15.59155,15.59155l357.32662,0l0,77.95774c0,8.58751 -7.00404,15.59155 -15.59155,15.59155l-841.94363,0c-8.58751,0 -15.59155,-7.00404 -15.59155,-15.59155l0,-77.95774l359.88462,0c8.64842,0 15.59155,-7.00404 15.59155,-15.59155c0,-8.58751 -6.94313,-15.59155 -15.59155,-15.59155l-359.88462,0l0,-405.38027zm481.14545,41.96317c-12.66811,3.16704 -26.00624,11.14551 -34.59375,21.25568c-8.1003,9.31838 -15.28703,23.26549 -16.20059,37.57804c-0.30452,5.05508 4.08061,9.19661 9.07477,8.46573c13.76442,-1.94896 26.98072,-10.47555 35.62914,-20.89024c8.52665,-10.35377 14.79982,-23.99637 15.77424,-38.18714c0.30452,-5.23777 -4.56782,-9.50113 -9.68382,-8.22213l0,0.00006zm9.68382,69.12663c-16.4442,-1.64444 -31.48762,4.20238 -42.45044,8.52665c-3.65425,1.46169 -8.70934,3.47156 -10.23194,3.5934c-1.82713,-0.06092 -7.24765,-2.19256 -10.84099,-3.5934c-9.19661,-3.65425 -20.82932,-8.16121 -33.43658,-8.03938c-27.89428,0.42635 -54.14407,16.26151 -68.57845,41.29327c-28.99053,50.36798 -5.35961,118.03287 17.66228,151.22584c11.14551,16.20059 28.01606,40.56239 53.90046,40.56239c0.54813,0 1.09631,0 1.64444,-0.06092c10.71921,-0.42635 18.45407,-3.71517 24.66632,-6.395c5.96865,-2.49708 10.71921,-4.5069 18.45407,-4.5069c7.24765,0 11.45003,1.76621 17.2969,4.2633c6.63861,2.92344 15.10434,6.395 27.10249,6.27317c26.73706,-0.42635 42.14591,-23.02189 53.41325,-39.527c12.11999,-17.7232 18.27132,-35.14187 20.40303,-41.78048c2.67977,-7.79577 -1.279,-16.38328 -8.95294,-19.48941c-2.61886,-1.09625 -25.76258,-11.38911 -26.0671,-39.70975c-0.18269,-22.16924 16.26151,-34.16739 21.86472,-37.63896c3.47156,-2.31439 5.90773,-5.96865 6.69952,-10.04925c0.79173,-4.14152 -0.06092,-8.3439 -2.37525,-11.81546c-19.55032,-28.56418 -49.27173,-32.76662 -60.17363,-33.13206l-0.00017,-0.00006zm-2.19256,31.06127c5.29869,0.24361 16.50511,1.64444 26.67614,9.31838c-10.47555,10.59738 -21.92563,27.77245 -21.68197,52.5606c0.30452,32.82753 18.94128,51.64698 32.15758,60.84359c-2.67977,6.33408 -6.63861,14.19078 -12.11999,22.16924c-10.35377,15.16525 -18.39315,25.82349 -28.25966,26.00624c-5.29869,0.06092 -8.89209,-1.40083 -14.19078,-3.65425c-7.0649,-3.10613 -15.89607,-6.88221 -29.59958,-6.88221c-14.12986,0 -23.32641,3.89792 -30.63497,7.00404c-5.116,2.13165 -8.70934,3.71517 -13.70351,3.95877c-9.80559,0.18269 -21.68197,-16.87055 -28.74693,-27.10249c-19.06311,-27.58976 -36.72539,-82.34287 -16.26151,-117.91109c9.01386,-15.59155 25.03176,-25.3972 42.02408,-25.70172l0.36544,0c6.57769,0 13.94711,2.92344 21.13384,5.78596c7.61308,2.98429 14.7389,5.90773 22.29101,5.90773c7.0649,0 13.82534,-2.74069 21.68197,-5.84682c8.89209,-3.47156 18.88042,-7.43034 28.86876,-6.45586l0.00006,-0.00012zm-66.38588,263.2292c-8.64842,0 -15.59155,7.00404 -15.59155,15.59155c0,8.58751 6.94313,15.59155 15.59155,15.59155l29.9041,0c8.64842,0 15.59155,-7.00404 15.59155,-15.59155c0,-8.58751 -6.94313,-15.59155 -15.59155,-15.59155l-29.9041,0zm-52.01242,155.91549l132.64994,0l37.45627,124.73239l-207.56247,0l37.45627,-124.73239z"/>
   </g>
   <g fill="#000000" id="subtracted-icon">
    <path stroke="null" id="svg_4" d="m920.65748,92.82516c25.76258,0 46.77465,21.01207 46.77465,46.77465l0,561.29576c0,25.76258 -21.01207,46.77465 -46.77465,46.77465l-322.06292,0l37.45627,124.73239l81.91652,0c8.64842,0 15.59155,7.00404 15.59155,15.59155c0,8.58751 -6.94313,15.59155 -15.59155,15.59155l-436.56337,0c-8.64842,0 -15.59155,-7.00404 -15.59155,-15.59155c0,-8.58751 6.94313,-15.59155 15.59155,-15.59155l81.91652,0l37.45627,-124.73239l-322.06292,0c-25.76258,0 -46.77465,-21.01207 -46.77465,-46.77465l0,-561.29576c0,-25.76258 21.01207,-46.77465 46.77465,-46.77465l841.94363,0zm-857.53518,46.77465l0,15.59155l873.12673,0l0,-15.59155c0,-8.58751 -7.00404,-15.59155 -15.59155,-15.59155l-841.94363,0c-8.58751,0 -15.59155,7.00404 -15.59155,15.59155zm0,452.15491l359.88462,0c8.64842,0 15.59155,7.00404 15.59155,15.59155c0,8.58751 -6.94313,15.59155 -15.59155,15.59155l-359.88462,0l0,77.95774c0,8.58751 7.00404,15.59155 15.59155,15.59155l841.94363,0c8.58751,0 15.59155,-7.00404 15.59155,-15.59155l0,-77.95774l-357.32662,0c-8.64842,0 -15.59155,-7.00404 -15.59155,-15.59155c0,-8.58751 6.94313,-15.59155 15.59155,-15.59155l357.32662,0l0,-405.38027l-873.12673,0l0,405.38027zm452.15491,0c8.64842,0 15.59155,7.00404 15.59155,15.59155c0,8.58751 -6.94313,15.59155 -15.59155,15.59155l-29.9041,0c-8.64842,0 -15.59155,-7.00404 -15.59155,-15.59155c0,-8.58751 6.94313,-15.59155 15.59155,-15.59155l29.9041,0zm-119.37278,280.64788l207.56247,0l-37.45627,-124.73239l-132.64994,0l-37.45627,124.73239z"/>
   </g>
   <g id="svg_8" fill="#000000">
    <path stroke="null" id="svg_9" d="m329.2692,362.08982l0,33.95747l-111.2945,0l0,111.48421l129.69603,0l0,33.95747l-169.21823,0l0,-314.72314l167.06822,0l0,34.14718l-127.54603,0l0,101.17682l111.2945,0zm273.68329,-7.58826l0,57.29137c0,42.95797 -9.16915,76.03014 -27.50745,99.21652c-18.29612,23.18638 -44.28592,34.77953 -77.96939,34.77953l0,0c-32.41876,0 -58.0502,-11.27698 -76.89438,-33.831c-18.802,-22.51184 -28.56139,-54.38254 -29.27804,-95.61209l0,0l0,-59.25167c0,-42.07267 9.29562,-75.01837 27.88686,-98.8371c18.59124,-23.86085 44.53886,-35.7913 77.84291,-35.7913l0,0c33.13541,0 58.95655,11.42457 77.4635,34.27365c18.50695,22.84908 27.99227,55.43649 28.45598,97.7621zm-39.58543,61.21198l0,-58.99873c0,-33.30406 -5.43825,-58.0502 -16.31476,-74.23849c-10.87651,-16.23047 -27.54963,-24.34567 -50.01929,-24.34567l0,0c-21.75302,0 -38.21531,8.22062 -49.38693,24.66185c-11.17163,16.39905 -16.8417,40.5972 -17.01035,72.59437l0,0l0,56.40608c0,32.12364 5.58578,56.61684 16.75741,73.47966c11.17163,16.86282 27.8658,25.2942 50.08253,25.2942c22.17461,0 38.59472,-7.77797 49.26046,-23.3339c10.66574,-15.55594 16.20935,-39.39572 16.63094,-71.51936zm124.70043,-188.94771l59.69432,120.65336l59.18844,-120.65336l46.4781,0l-81.88999,156.06524l83.59735,158.6579l-46.85751,0l-60.51638,-122.74013l-60.76933,122.74013l-46.92075,0l84.10323,-158.6579l-82.33264,-156.06524l46.22516,0z"/>
   </g>
  </g>
 </g>
</svg>